STARTFONT 2.1
FONT -DEC-Present Bullets-Medium-R-Normal--8-80-75-75-P-105-DEC-FontSpecific
SIZE 8 75 75
FONTBOUNDINGBOX 12 8 0 -1

STARTPROPERTIES 10
COPYRIGHT "Copyright 1990,  Digital Equipment Corporation Created by Loree Nelson, The Artis Consultancy"
POINT_SIZE 80
WEIGHT 10
RESOLUTION_X 75
RESOLUTION_Y 75
X_HEIGHT 6
QUAD_WIDTH 7
DEFAULT_CHAR 0
FONT_DESCENT 2
FONT_ASCENT 7
ENDPROPERTIES

CHARS 59

STARTCHAR space
ENCODING 32
SWIDTH 250 0
DWIDTH 2 0
BBX 0 0 0 0
BITMAP
ENDCHAR

STARTCHAR A
ENCODING 65
SWIDTH 704 0
DWIDTH 6 0
BBX 4 6 0 0
BITMAP
30
20
F0
B0
D0
F0
ENDCHAR

STARTCHAR B
ENCODING 66
SWIDTH 616 0
DWIDTH 5 0
BBX 4 7 1 0
BITMAP
10
30
30
20
E0
C0
40
ENDCHAR

STARTCHAR C
ENCODING 67
SWIDTH 740 0
DWIDTH 6 0
BBX 4 6 0 0
BITMAP
80
40
30
20
40
80
ENDCHAR

STARTCHAR D
ENCODING 68
SWIDTH 953 0
DWIDTH 8 0
BBX 8 7 0 0
BITMAP
18
18
3C
E7
24
3C
66
ENDCHAR

STARTCHAR E
ENCODING 69
SWIDTH 1048 0
DWIDTH 8 0
BBX 6 7 1 0
BITMAP
30
30
FC
78
30
78
84
ENDCHAR

STARTCHAR F
ENCODING 70
SWIDTH 732 0
DWIDTH 6 0
BBX 5 5 0 1
BITMAP
20
F0
F8
F0
20
ENDCHAR

STARTCHAR G
ENCODING 71
SWIDTH 732 0
DWIDTH 6 0
BBX 5 5 0 1
BITMAP
20
D0
88
D0
20
ENDCHAR

STARTCHAR H
ENCODING 72
SWIDTH 1000 0
DWIDTH 8 0
BBX 8 2 0 -1
BITMAP
1F
FF
ENDCHAR

STARTCHAR I
ENCODING 73
SWIDTH 787 0
DWIDTH 6 0
BBX 4 6 0 0
BITMAP
C0
60
30
10
10
10
ENDCHAR

STARTCHAR J
ENCODING 74
SWIDTH 756 0
DWIDTH 6 0
BBX 4 6 1 0
BITMAP
90
A0
40
60
A0
20
ENDCHAR

STARTCHAR K
ENCODING 75
SWIDTH 935 0
DWIDTH 7 0
BBX 5 7 1 0
BITMAP
88
50
50
20
50
50
88
ENDCHAR

STARTCHAR L
ENCODING 76
SWIDTH 1000 0
DWIDTH 8 0
BBX 7 6 0 0
BITMAP
60
F0
58
2C
16
0E
ENDCHAR

STARTCHAR M
ENCODING 77
SWIDTH 1440 0
DWIDTH 12 0
BBX 11 6 0 -1
BITMAP
3F80
7FC0
FFE0
DB60
3F80
7FC0
ENDCHAR

STARTCHAR N
ENCODING 78
SWIDTH 1292 0
DWIDTH 10 0
BBX 8 6 0 0
BITMAP
7E
FF
FF
3C
7E
66
ENDCHAR

STARTCHAR O
ENCODING 79
SWIDTH 1488 0
DWIDTH 12 0
BBX 11 5 1 0
BITMAP
FFE0
8100
B200
AE00
E300
ENDCHAR

STARTCHAR P
ENCODING 80
SWIDTH 1292 0
DWIDTH 10 0
BBX 10 4 0 1
BITMAP
7FC0
A100
A600
FC00
ENDCHAR

STARTCHAR Q
ENCODING 81
SWIDTH 844 0
DWIDTH 7 0
BBX 6 5 1 1
BITMAP
20
90
FC
90
20
ENDCHAR

STARTCHAR R
ENCODING 82
SWIDTH 1195 0
DWIDTH 10 0
BBX 6 5 0 0
BITMAP
78
48
FC
FC
48
ENDCHAR

STARTCHAR S
ENCODING 83
SWIDTH 1376 0
DWIDTH 11 0
BBX 11 7 0 -1
BITMAP
FFE0
C060
A0A0
9F20
A0A0
C060
FFE0
ENDCHAR

STARTCHAR T
ENCODING 84
SWIDTH 1098 0
DWIDTH 9 0
BBX 8 7 0 0
BITMAP
5A
B5
62
2A
22
1C
14
ENDCHAR

STARTCHAR U
ENCODING 85
SWIDTH 992 0
DWIDTH 8 0
BBX 7 7 0 0
BITMAP
10
82
38
AA
28
38
10
ENDCHAR

STARTCHAR V
ENCODING 86
SWIDTH 1175 0
DWIDTH 9 0
BBX 7 6 0 0
BITMAP
78
48
48
7C
7A
FE
ENDCHAR

STARTCHAR W
ENCODING 87
SWIDTH 790 0
DWIDTH 6 0
BBX 5 6 0 0
BITMAP
70
D8
A8
A8
A8
70
ENDCHAR

STARTCHAR X
ENCODING 88
SWIDTH 860 0
DWIDTH 7 0
BBX 6 6 0 0
BITMAP
FC
EC
04
04
EC
FC
ENDCHAR

STARTCHAR Y
ENCODING 89
SWIDTH 804 0
DWIDTH 6 0
BBX 7 5 0 1
BITMAP
08
F4
8A
F4
08
ENDCHAR

STARTCHAR Z
ENCODING 90
SWIDTH 1220 0
DWIDTH 10 0
BBX 7 6 0 0
BITMAP
C0
7C
26
3C
70
80
ENDCHAR

STARTCHAR bracketleft
ENCODING 91
SWIDTH 1260 0
DWIDTH 10 0
BBX 7 5 0 0
BITMAP
08
04
FE
04
08
ENDCHAR

STARTCHAR backslash
ENCODING 92
SWIDTH 915 0
DWIDTH 7 0
BBX 7 7 0 0
BITMAP
38
54
BA
EE
BA
54
38
ENDCHAR

STARTCHAR bracketright
ENCODING 93
SWIDTH 1292 0
DWIDTH 10 0
BBX 9 4 0 0
BITMAP
FF80
F800
FC00
7800
ENDCHAR

STARTCHAR asciicircum
ENCODING 94
SWIDTH 940 0
DWIDTH 8 0
BBX 4 1 2 2
BITMAP
F0
ENDCHAR

STARTCHAR underscore
ENCODING 95
SWIDTH 1164 0
DWIDTH 9 0
BBX 7 1 1 2
BITMAP
FE
ENDCHAR

STARTCHAR grave
ENCODING 96
SWIDTH 720 0
DWIDTH 6 0
BBX 5 5 0 1
BITMAP
70
88
88
88
70
ENDCHAR

STARTCHAR a
ENCODING 97
SWIDTH 720 0
DWIDTH 6 0
BBX 5 5 0 1
BITMAP
70
F8
F8
F8
70
ENDCHAR

STARTCHAR b
ENCODING 98
SWIDTH 1272 0
DWIDTH 10 0
BBX 9 3 0 1
BITMAP
1380
BB80
1380
ENDCHAR

STARTCHAR c
ENCODING 99
SWIDTH 556 0
DWIDTH 4 0
BBX 2 6 0 0
BITMAP
80
C0
C0
C0
C0
80
ENDCHAR

STARTCHAR d
ENCODING 100
SWIDTH 616 0
DWIDTH 5 0
BBX 3 7 1 0
BITMAP
80
60
20
20
20
40
C0
ENDCHAR

STARTCHAR e
ENCODING 101
SWIDTH 956 0
DWIDTH 8 0
BBX 6 6 0 0
BITMAP
18
04
04
08
30
E0
ENDCHAR

STARTCHAR f
ENCODING 102
SWIDTH 932 0
DWIDTH 7 0
BBX 6 6 1 0
BITMAP
30
30
78
68
CC
FC
ENDCHAR

STARTCHAR g
ENCODING 103
SWIDTH 956 0
DWIDTH 8 0
BBX 7 6 1 0
BITMAP
10
38
38
7C
7C
FE
ENDCHAR

STARTCHAR h
ENCODING 104
SWIDTH 620 0
DWIDTH 5 0
BBX 4 6 1 0
BITMAP
60
60
F0
F0
60
60
ENDCHAR

STARTCHAR i
ENCODING 105
SWIDTH 620 0
DWIDTH 5 0
BBX 4 6 1 0
BITMAP
60
60
D0
D0
60
60
ENDCHAR

STARTCHAR j
ENCODING 106
SWIDTH 1023 0
DWIDTH 8 0
BBX 8 5 1 1
BITMAP
18
7E
FF
7E
18
ENDCHAR

STARTCHAR k
ENCODING 107
SWIDTH 930 0
DWIDTH 7 0
BBX 7 7 0 0
BITMAP
10
10
38
FE
38
10
10
ENDCHAR

STARTCHAR l
ENCODING 108
SWIDTH 548 0
DWIDTH 4 0
BBX 4 7 1 -1
BITMAP
80
C0
E0
F0
E0
C0
80
ENDCHAR

STARTCHAR m
ENCODING 109
SWIDTH 896 0
DWIDTH 7 0
BBX 5 2 1 2
BITMAP
F8
40
ENDCHAR

STARTCHAR n
ENCODING 110
SWIDTH 1000 0
DWIDTH 8 0
BBX 6 3 1 1
BITMAP
C0
3C
20
ENDCHAR

STARTCHAR o
ENCODING 111
SWIDTH 1000 0
DWIDTH 8 0
BBX 7 2 0 2
BITMAP
0C
FE
ENDCHAR

STARTCHAR p
ENCODING 112
SWIDTH 1096 0
DWIDTH 9 0
BBX 7 2 0 1
BITMAP
7E
FC
ENDCHAR

STARTCHAR q
ENCODING 113
SWIDTH 704 0
DWIDTH 6 0
BBX 5 7 0 0
BITMAP
38
38
70
70
70
E0
E0
ENDCHAR

STARTCHAR r
ENCODING 114
SWIDTH 1036 0
DWIDTH 8 0
BBX 8 7 0 0
BITMAP
01
03
02
06
06
0C
FC
ENDCHAR

STARTCHAR s
ENCODING 115
SWIDTH 1264 0
DWIDTH 10 0
BBX 7 7 1 0
BITMAP
02
02
02
06
0E
1E
FE
ENDCHAR

STARTCHAR t
ENCODING 116
SWIDTH 884 0
DWIDTH 7 0
BBX 4 4 1 0
BITMAP
F0
90
90
F0
ENDCHAR

STARTCHAR u
ENCODING 117
SWIDTH 844 0
DWIDTH 7 0
BBX 4 5 1 1
BITMAP
F0
F0
F0
F0
F0
ENDCHAR

STARTCHAR v
ENCODING 118
SWIDTH 1176 0
DWIDTH 9 0
BBX 7 3 1 1
BITMAP
FE
FE
FE
ENDCHAR

STARTCHAR w
ENCODING 119
SWIDTH 1252 0
DWIDTH 10 0
BBX 8 4 0 0
BITMAP
FD
FD
FD
FD
ENDCHAR

STARTCHAR x
ENCODING 120
SWIDTH 1244 0
DWIDTH 10 0
BBX 9 6 0 0
BITMAP
0200
BF00
BF80
BF80
BF00
0200
ENDCHAR

STARTCHAR y
ENCODING 121
SWIDTH 864 0
DWIDTH 7 0
BBX 5 4 0 0
BITMAP
F8
B8
B8
F8
ENDCHAR

STARTCHAR z
ENCODING 122
SWIDTH 704 0
DWIDTH 6 0
BBX 4 4 0 0
BITMAP
F0
90
90
F0
ENDCHAR
ENDFONT
